# xmcd CD database file
#
# Track frame offsets:
#	150
#	14614
#	32537
#	46865
#	66467
#	78543
#	96654
#	109220
#	124941
#	137745
#	156469
#	172263
#
# Disc length: 2522 seconds
#
# Revision: 0
# Processed by: cddbd v1.5PL3 Copyright (c) Steve Scherf et al.
# Submitted via: CDex 1.51
#
DISCID=b209d80c
DTITLE=Kieran Kane and Kevin Welch - You Can't Save Everybody
DYEAR=2004
DGENRE=Blues
TTITLE0=You Can't Save Everybody
TTITLE1=Dark Eyed Gal
TTITLE2=Hillbilly Blue
TTITLE3=Jersey Devil
TTITLE4=Somewhere In The Middle
TTITLE5=Flycatcher Jack and the Whipporwill's Song
TTITLE6=Callin' Me
TTITLE7=Till I'm Too Old To Die Young
TTITLE8=Cecil's Lament
TTITLE9=Everybody's Working For The Man Again....
TTITLE10=Just Like That
TTITLE11=A Prayer Like Any Other (for Nikke)
EXTD=YEAR: 2004
EXTT0=
EXTT1=
EXTT2=
EXTT3=
EXTT4=
EXTT5=
EXTT6=
EXTT7=
EXTT8=
EXTT9=
EXTT10=
EXTT11=
PLAYORDER=
